<?xml version="1.0" encoding="UTF-8"?>
<svg xmlns="http://www.w3.org/2000/svg" xmlns:xlink="http://www.w3.org/1999/xlink" width="0px" height="0px" viewBox="0 0 297 162" version="1.1">
<g id="surface1">
<path style=" stroke:none;fill-rule:nonzero;fill:rgb(0%,9.803922%,46.27451%);fill-opacity:1;" d="M 54.40625 108.601562 L 50.90625 108.601562 L 50.90625 91.269531 L 54.40625 91.269531 Z M 69.113281 106.648438 C 68.414062 107.398438 67.5625 107.949219 66.613281 108.300781 C 65.5625 108.703125 64.511719 108.851562 63.410156 108.851562 C 61.410156 108.851562 59.859375 108.25 58.761719 107 C 57.660156 105.746094 57.109375 103.941406 57.058594 101.589844 L 57.058594 98.480469 C 57.058594 96.078125 57.558594 94.273438 58.609375 92.972656 C 59.660156 91.667969 61.160156 91.019531 63.160156 91.019531 C 65.0625 91.019531 66.464844 91.46875 67.414062 92.421875 C 68.363281 93.371094 68.914062 94.824219 69.066406 96.777344 L 65.664062 96.777344 C 65.5625 95.675781 65.363281 94.925781 64.960938 94.523438 C 64.511719 94.074219 63.863281 93.875 63.261719 93.925781 C 62.460938 93.875 61.660156 94.273438 61.210938 94.976562 C 60.761719 95.675781 60.5625 96.777344 60.5625 98.28125 L 60.5625 101.4375 C 60.5625 103.039062 60.8125 104.144531 61.261719 104.894531 C 61.8125 105.644531 62.660156 106.046875 63.5625 105.945312 C 64.164062 105.996094 64.710938 105.847656 65.261719 105.546875 L 65.5625 105.34375 L 65.5625 102.140625 L 63.113281 102.140625 L 63.113281 99.484375 L 69.066406 99.484375 Z M 70.964844 101.789062 C 70.964844 99.683594 71.316406 98.082031 72.015625 97.078125 C 72.714844 96.027344 73.917969 95.476562 75.117188 95.527344 C 76.117188 95.527344 77.019531 96.027344 77.566406 96.828125 L 77.566406 90.367188 L 80.96875 90.367188 L 80.96875 108.601562 L 77.917969 108.601562 L 77.769531 107.296875 C 77.21875 108.25 76.21875 108.851562 75.117188 108.851562 C 73.867188 108.902344 72.714844 108.351562 72.015625 107.296875 C 71.316406 106.246094 70.964844 104.742188 70.914062 102.742188 L 70.914062 101.789062 Z M 74.367188 102.589844 C 74.316406 103.492188 74.46875 104.394531 74.765625 105.246094 C 75.015625 105.746094 75.566406 106.046875 76.117188 105.996094 C 76.769531 105.996094 77.316406 105.644531 77.617188 105.09375 L 77.617188 99.234375 C 77.367188 98.632812 76.769531 98.28125 76.117188 98.28125 C 75.566406 98.230469 75.015625 98.53125 74.765625 99.035156 C 74.46875 99.535156 74.316406 100.4375 74.316406 101.6875 Z M 89.375 91.269531 L 92.875 91.269531 L 92.875 103.292969 C 92.925781 104.792969 92.425781 106.246094 91.472656 107.347656 C 90.523438 108.351562 89.222656 108.902344 87.871094 108.851562 C 86.472656 108.953125 85.121094 108.402344 84.171875 107.449219 C 83.269531 106.496094 82.871094 105.195312 82.871094 103.492188 L 86.371094 103.492188 C 86.371094 105.144531 86.871094 105.945312 87.871094 105.945312 C 88.875 105.945312 89.375 104.996094 89.375 103.089844 Z M 53.507812 135.050781 L 51.304688 135.050781 L 51.304688 117.71875 L 53.507812 117.71875 Z M 59.011719 122.175781 L 59.058594 123.578125 C 59.761719 122.527344 60.960938 121.925781 62.160156 121.925781 C 64.414062 121.925781 65.613281 123.429688 65.613281 126.484375 L 65.613281 135.050781 L 63.511719 135.050781 L 63.511719 126.585938 C 63.5625 125.832031 63.410156 125.082031 63.011719 124.429688 C 62.660156 123.980469 62.0625 123.777344 61.511719 123.777344 C 61.011719 123.777344 60.511719 123.929688 60.109375 124.28125 C 59.660156 124.679688 59.359375 125.132812 59.109375 125.632812 L 59.109375 135 L 57.007812 135 L 57.007812 122.125 Z M 75.066406 131.742188 C 75.066406 131.292969 74.917969 130.890625 74.566406 130.59375 C 73.964844 130.089844 73.316406 129.742188 72.617188 129.441406 C 71.765625 129.140625 70.964844 128.738281 70.214844 128.238281 C 69.765625 127.9375 69.414062 127.535156 69.164062 127.085938 C 68.914062 126.632812 68.8125 126.082031 68.8125 125.582031 C 68.8125 124.582031 69.214844 123.628906 69.964844 122.976562 C 71.714844 121.574219 74.214844 121.574219 75.917969 123.027344 C 76.667969 123.777344 77.117188 124.78125 77.066406 125.832031 L 74.96875 125.832031 C 74.96875 125.28125 74.765625 124.730469 74.367188 124.332031 C 73.964844 123.929688 73.417969 123.679688 72.867188 123.730469 C 72.316406 123.730469 71.816406 123.878906 71.414062 124.230469 C 71.066406 124.582031 70.867188 125.03125 70.867188 125.53125 C 70.867188 125.933594 71.015625 126.285156 71.265625 126.585938 C 71.816406 127.035156 72.464844 127.386719 73.117188 127.636719 C 74.667969 128.238281 75.71875 128.839844 76.316406 129.441406 C 76.867188 130.039062 77.167969 130.84375 77.167969 131.644531 C 77.21875 132.644531 76.769531 133.648438 76.019531 134.347656 C 75.167969 135.050781 74.066406 135.402344 72.917969 135.351562 C 71.714844 135.402344 70.566406 135 69.664062 134.199219 C 68.863281 133.445312 68.363281 132.394531 68.414062 131.242188 L 70.515625 131.242188 C 70.464844 132.445312 71.367188 133.445312 72.566406 133.546875 C 72.667969 133.546875 72.816406 133.546875 72.917969 133.546875 C 73.464844 133.597656 74.066406 133.398438 74.515625 133.097656 C 74.867188 132.746094 75.066406 132.246094 75.066406 131.742188 Z M 82.671875 119.019531 L 82.671875 122.125 L 84.621094 122.125 L 84.621094 123.828125 L 82.671875 123.828125 L 82.671875 131.84375 C 82.671875 132.246094 82.71875 132.644531 82.921875 132.996094 C 83.121094 133.296875 83.421875 133.445312 83.769531 133.398438 C 84.070312 133.398438 84.320312 133.347656 84.621094 133.246094 L 84.621094 135.050781 C 84.171875 135.199219 83.671875 135.300781 83.171875 135.300781 C 82.421875 135.351562 81.71875 135 81.269531 134.398438 C 80.769531 133.648438 80.570312 132.796875 80.621094 131.894531 L 80.621094 123.878906 L 78.667969 123.878906 L 78.667969 122.175781 L 80.621094 122.175781 L 80.621094 119.070312 Z M 89.375 135.050781 L 87.273438 135.050781 L 87.273438 122.125 L 89.375 122.125 Z M 89.523438 118.769531 C 89.523438 119.070312 89.421875 119.421875 89.222656 119.671875 C 88.722656 120.121094 87.921875 120.121094 87.421875 119.671875 C 87.222656 119.421875 87.121094 119.121094 87.121094 118.769531 C 87.121094 118.417969 87.222656 118.117188 87.421875 117.867188 C 87.921875 117.367188 88.722656 117.367188 89.222656 117.867188 C 89.421875 118.117188 89.523438 118.417969 89.523438 118.769531 Z M 95.425781 119.070312 L 95.425781 122.175781 L 97.378906 122.175781 L 97.378906 123.878906 L 95.425781 123.878906 L 95.425781 131.894531 C 95.375 132.296875 95.476562 132.695312 95.675781 133.046875 C 95.875 133.296875 96.175781 133.445312 96.527344 133.445312 C 96.828125 133.445312 97.078125 133.398438 97.378906 133.296875 L 97.378906 135.101562 C 96.925781 135.25 96.425781 135.351562 95.925781 135.351562 C 95.175781 135.402344 94.476562 135.050781 94.027344 134.449219 C 93.527344 133.699219 93.324219 132.847656 93.375 131.945312 L 93.375 123.929688 L 91.375 123.929688 L 91.375 122.226562 L 93.324219 122.226562 L 93.324219 119.121094 Z M 106.429688 133.949219 C 105.679688 134.898438 104.53125 135.402344 103.378906 135.300781 C 102.328125 135.351562 101.378906 134.898438 100.730469 134.097656 C 100.128906 133.296875 99.828125 132.09375 99.828125 130.59375 L 99.828125 122.175781 L 101.929688 122.175781 L 101.929688 130.441406 C 101.929688 132.445312 102.53125 133.445312 103.730469 133.445312 C 104.878906 133.496094 105.980469 132.847656 106.382812 131.742188 L 106.382812 122.226562 L 108.480469 122.226562 L 108.480469 135.101562 L 106.480469 135.101562 Z M 114.382812 119.070312 L 114.382812 122.175781 L 116.335938 122.175781 L 116.335938 123.878906 L 114.382812 123.878906 L 114.382812 131.894531 C 114.335938 132.296875 114.433594 132.695312 114.636719 133.046875 C 114.835938 133.347656 115.136719 133.496094 115.484375 133.445312 C 115.785156 133.445312 116.035156 133.398438 116.335938 133.296875 L 116.335938 135.101562 C 115.886719 135.25 115.386719 135.351562 114.886719 135.351562 C 114.132812 135.402344 113.433594 135.050781 112.984375 134.449219 C 112.484375 133.699219 112.285156 132.847656 112.332031 131.945312 L 112.332031 123.929688 L 110.382812 123.929688 L 110.382812 122.226562 L 112.332031 122.226562 L 112.332031 119.121094 Z M 125.339844 135.101562 L 125.339844 123.878906 L 123.640625 123.878906 L 123.640625 122.175781 L 125.339844 122.175781 L 125.339844 120.671875 C 125.289062 119.570312 125.640625 118.46875 126.339844 117.617188 C 127.039062 116.867188 128.039062 116.464844 129.042969 116.515625 C 129.492188 116.515625 129.890625 116.566406 130.292969 116.714844 L 130.191406 118.519531 C 129.890625 118.46875 129.542969 118.417969 129.242188 118.417969 C 128.039062 118.417969 127.441406 119.269531 127.441406 120.972656 L 127.441406 122.175781 L 129.640625 122.175781 L 129.640625 123.878906 L 127.441406 123.878906 L 127.441406 135.101562 Z M 138.695312 133.949219 C 137.945312 134.898438 136.84375 135.402344 135.644531 135.300781 C 134.59375 135.351562 133.644531 134.898438 132.992188 134.097656 C 132.394531 133.296875 132.09375 132.09375 132.09375 130.59375 L 132.09375 122.125 L 134.195312 122.125 L 134.195312 130.390625 C 134.195312 132.394531 134.792969 133.398438 135.996094 133.398438 C 137.144531 133.445312 138.246094 132.796875 138.644531 131.695312 L 138.644531 122.175781 L 140.746094 122.175781 L 140.746094 135.050781 L 138.746094 135.050781 Z M 132.59375 118.71875 C 132.59375 118.371094 132.691406 118.070312 132.941406 117.816406 C 133.191406 117.566406 133.542969 117.417969 133.894531 117.46875 C 134.242188 117.417969 134.59375 117.566406 134.894531 117.816406 C 135.09375 118.070312 135.242188 118.371094 135.242188 118.71875 C 135.195312 119.472656 134.542969 120.023438 133.792969 119.972656 C 133.492188 119.972656 133.191406 119.820312 132.992188 119.621094 C 132.691406 119.371094 132.59375 119.070312 132.59375 118.71875 Z M 137.746094 118.71875 C 137.746094 118.371094 137.84375 118.070312 138.046875 117.816406 C 138.59375 117.316406 139.445312 117.316406 139.996094 117.816406 C 140.195312 118.070312 140.347656 118.371094 140.347656 118.71875 C 140.347656 119.070312 140.246094 119.371094 139.996094 119.621094 C 139.746094 119.871094 139.347656 120.023438 138.996094 119.972656 C 138.644531 120.023438 138.296875 119.871094 138.046875 119.621094 C 137.796875 119.371094 137.695312 119.070312 137.746094 118.71875 Z M 149.25 124.128906 C 148.949219 124.078125 148.601562 124.03125 148.300781 124.03125 C 147.199219 124.03125 146.449219 124.628906 146.050781 125.78125 L 146.050781 135 L 143.949219 135 L 143.949219 122.125 L 146 122.125 L 146.050781 123.429688 C 146.449219 122.476562 147.398438 121.875 148.449219 121.875 C 148.75 121.875 149 121.925781 149.300781 122.027344 Z M 156.453125 128.035156 C 156.453125 126.035156 156.804688 124.53125 157.554688 123.480469 C 158.304688 122.425781 159.503906 121.875 160.753906 121.925781 C 161.90625 121.875 163.007812 122.476562 163.65625 123.429688 L 163.65625 116.765625 L 165.757812 116.765625 L 165.757812 135.050781 L 163.808594 135.050781 L 163.707031 133.648438 C 163.105469 134.699219 161.957031 135.300781 160.753906 135.25 C 159.503906 135.300781 158.355469 134.699219 157.605469 133.699219 C 156.855469 132.644531 156.453125 131.191406 156.453125 129.289062 Z M 158.554688 129.238281 C 158.554688 130.691406 158.753906 131.742188 159.203125 132.445312 C 159.65625 133.148438 160.457031 133.496094 161.304688 133.445312 C 162.355469 133.445312 163.257812 132.847656 163.65625 131.84375 L 163.65625 125.332031 C 163.257812 124.378906 162.355469 123.777344 161.304688 123.777344 C 160.457031 123.730469 159.65625 124.078125 159.203125 124.78125 C 158.753906 125.433594 158.554688 126.484375 158.554688 127.886719 Z M 171.261719 135.050781 L 169.160156 135.050781 L 169.160156 122.175781 L 171.261719 122.175781 Z M 171.410156 118.71875 C 171.410156 119.019531 171.308594 119.371094 171.109375 119.621094 C 170.859375 119.871094 170.558594 120.023438 170.210938 119.972656 C 169.859375 120.023438 169.507812 119.871094 169.308594 119.621094 C 169.109375 119.371094 169.007812 119.070312 169.007812 118.71875 C 169.007812 118.371094 169.109375 118.070312 169.308594 117.816406 C 169.808594 117.316406 170.609375 117.316406 171.109375 117.816406 C 171.308594 118.070312 171.410156 118.417969 171.410156 118.71875 Z M 179.164062 135.25 C 177.5625 135.25 176.3125 134.75 175.460938 133.796875 C 174.613281 132.847656 174.160156 131.445312 174.160156 129.589844 L 174.160156 128.035156 C 174.160156 126.132812 174.5625 124.628906 175.410156 123.527344 C 176.261719 122.425781 177.5625 121.824219 178.914062 121.875 C 180.414062 121.875 181.566406 122.375 182.316406 123.328125 C 183.066406 124.28125 183.414062 125.78125 183.464844 127.835938 L 183.464844 129.238281 L 176.261719 129.238281 L 176.261719 129.539062 C 176.261719 130.941406 176.511719 131.945312 177.0625 132.546875 C 177.613281 133.195312 178.464844 133.546875 179.3125 133.496094 C 179.863281 133.496094 180.464844 133.398438 180.964844 133.148438 C 181.464844 132.894531 181.914062 132.496094 182.265625 132.042969 L 183.367188 133.398438 C 182.414062 134.648438 181.015625 135.300781 179.164062 135.25 Z M 178.964844 123.730469 C 178.214844 123.679688 177.464844 124.03125 177.011719 124.628906 C 176.511719 125.480469 176.261719 126.433594 176.3125 127.4375 L 181.363281 127.4375 L 181.363281 127.136719 C 181.316406 125.933594 181.113281 125.03125 180.714844 124.53125 C 180.265625 123.980469 179.5625 123.679688 178.964844 123.730469 Z M 202.675781 132.894531 L 202.273438 133.398438 C 201.171875 134.648438 199.574219 135.300781 197.472656 135.300781 C 195.769531 135.402344 194.171875 134.699219 193.070312 133.445312 C 192.019531 132.195312 191.46875 130.441406 191.417969 128.1875 L 191.417969 124.78125 C 191.417969 122.375 191.917969 120.523438 192.871094 119.320312 C 193.820312 118.117188 195.320312 117.519531 197.222656 117.519531 C 198.621094 117.417969 200.023438 117.917969 201.074219 118.921875 C 202.023438 119.820312 202.523438 121.175781 202.625 122.878906 L 200.421875 122.878906 C 200.375 121.976562 200.074219 121.074219 199.523438 120.371094 C 198.921875 119.722656 198.070312 119.371094 197.222656 119.472656 C 196.171875 119.371094 195.121094 119.871094 194.46875 120.671875 C 193.921875 121.476562 193.621094 122.777344 193.570312 124.582031 L 193.570312 128.136719 C 193.570312 129.890625 193.921875 131.242188 194.570312 132.144531 C 195.222656 133.046875 196.320312 133.597656 197.421875 133.546875 C 198.371094 133.597656 199.371094 133.296875 200.125 132.695312 L 200.421875 132.394531 L 200.421875 128.386719 L 197.222656 128.386719 L 197.222656 126.535156 L 202.574219 126.535156 Z M 210.578125 135.25 C 208.976562 135.25 207.726562 134.75 206.875 133.796875 C 206.027344 132.847656 205.574219 131.445312 205.574219 129.589844 L 205.574219 128.035156 C 205.574219 126.132812 205.976562 124.628906 206.824219 123.527344 C 207.675781 122.425781 208.976562 121.824219 210.328125 121.875 C 211.828125 121.875 212.980469 122.375 213.730469 123.328125 C 214.480469 124.28125 214.828125 125.78125 214.878906 127.835938 L 214.878906 129.238281 L 207.675781 129.238281 L 207.675781 129.539062 C 207.675781 130.941406 207.925781 131.945312 208.476562 132.546875 C 209.027344 133.195312 209.878906 133.546875 210.726562 133.496094 C 211.277344 133.496094 211.878906 133.398438 212.378906 133.148438 C 212.878906 132.894531 213.328125 132.496094 213.679688 132.042969 L 214.78125 133.398438 C 213.777344 134.648438 212.429688 135.300781 210.578125 135.25 Z M 210.328125 123.730469 C 209.578125 123.679688 208.828125 124.03125 208.375 124.628906 C 207.875 125.480469 207.625 126.433594 207.675781 127.4375 L 212.730469 127.4375 L 212.730469 127.136719 C 212.679688 125.933594 212.480469 125.03125 212.078125 124.53125 C 211.628906 123.980469 210.976562 123.679688 210.328125 123.730469 Z M 223.632812 131.742188 C 223.632812 131.292969 223.484375 130.890625 223.132812 130.59375 C 222.53125 130.089844 221.882812 129.742188 221.132812 129.441406 C 220.28125 129.140625 219.480469 128.738281 218.730469 128.238281 C 218.28125 127.9375 217.929688 127.535156 217.679688 127.085938 C 217.429688 126.632812 217.332031 126.082031 217.332031 125.582031 C 217.332031 124.582031 217.730469 123.628906 218.480469 122.976562 C 220.230469 121.574219 222.734375 121.574219 224.433594 123.027344 C 225.183594 123.777344 225.585938 124.78125 225.585938 125.832031 L 223.484375 125.832031 C 223.484375 125.28125 223.285156 124.730469 222.882812 124.332031 C 222.484375 123.929688 221.933594 123.679688 221.382812 123.730469 C 220.832031 123.730469 220.332031 123.878906 219.933594 124.230469 C 219.582031 124.582031 219.382812 125.03125 219.382812 125.53125 C 219.382812 125.933594 219.480469 126.285156 219.78125 126.585938 C 220.332031 127.035156 220.980469 127.386719 221.632812 127.636719 C 223.183594 128.238281 224.234375 128.839844 224.835938 129.441406 C 225.382812 130.039062 225.683594 130.84375 225.683594 131.644531 C 225.734375 132.644531 225.285156 133.648438 224.535156 134.347656 C 223.683594 135.050781 222.53125 135.402344 221.433594 135.351562 C 220.230469 135.402344 219.082031 135 218.179688 134.199219 C 217.378906 133.445312 216.878906 132.394531 216.929688 131.242188 L 219.03125 131.242188 C 218.980469 132.445312 219.882812 133.445312 221.082031 133.546875 C 221.183594 133.546875 221.28125 133.546875 221.433594 133.546875 C 221.984375 133.597656 222.582031 133.398438 223.035156 133.097656 C 223.433594 132.695312 223.632812 132.246094 223.632812 131.742188 Z M 232.9375 133.445312 C 233.589844 133.496094 234.1875 133.246094 234.636719 132.796875 C 235.089844 132.296875 235.339844 131.644531 235.339844 130.941406 L 237.339844 130.941406 C 237.339844 132.09375 236.839844 133.195312 236.039062 134 C 235.238281 134.800781 234.136719 135.25 232.988281 135.199219 C 231.585938 135.300781 230.238281 134.75 229.335938 133.699219 C 228.484375 132.695312 228.085938 131.191406 228.085938 129.1875 L 228.085938 127.785156 C 228.085938 125.832031 228.484375 124.332031 229.335938 123.328125 C 230.1875 122.328125 231.386719 121.824219 232.988281 121.824219 C 234.1875 121.777344 235.289062 122.226562 236.140625 123.078125 C 236.941406 124.03125 237.390625 125.230469 237.390625 126.484375 L 235.390625 126.484375 C 235.390625 125.734375 235.140625 124.980469 234.6875 124.332031 C 234.238281 123.828125 233.636719 123.578125 232.988281 123.628906 C 232.1875 123.578125 231.386719 123.929688 230.886719 124.582031 C 230.4375 125.183594 230.1875 126.183594 230.1875 127.585938 L 230.1875 129.238281 C 230.1875 130.742188 230.386719 131.84375 230.835938 132.445312 C 231.335938 133.195312 232.085938 133.546875 232.9375 133.445312 Z M 241.839844 123.429688 C 242.542969 122.476562 243.691406 121.925781 244.894531 121.925781 C 247.144531 121.925781 248.34375 123.429688 248.34375 126.484375 L 248.34375 135.050781 L 246.242188 135.050781 L 246.242188 126.535156 C 246.292969 125.78125 246.144531 125.03125 245.742188 124.378906 C 245.394531 123.929688 244.792969 123.730469 244.242188 123.730469 C 243.742188 123.730469 243.242188 123.878906 242.84375 124.230469 C 242.390625 124.628906 242.09375 125.082031 241.839844 125.582031 L 241.839844 134.949219 L 239.742188 134.949219 L 239.742188 116.667969 L 241.839844 116.667969 Z M 253.746094 135 L 251.644531 135 L 251.644531 122.125 L 253.746094 122.125 Z M 253.898438 118.71875 C 253.898438 119.019531 253.796875 119.371094 253.597656 119.621094 C 253.347656 119.871094 253.046875 120.023438 252.695312 119.972656 C 252.347656 120.023438 252.046875 119.871094 251.796875 119.621094 C 251.597656 119.371094 251.496094 119.070312 251.496094 118.71875 C 251.496094 118.371094 251.597656 118.070312 251.796875 117.816406 C 252.296875 117.316406 253.097656 117.316406 253.597656 117.816406 C 253.796875 118.070312 253.945312 118.371094 253.898438 118.71875 Z M 261.550781 133.445312 C 262.199219 133.496094 262.800781 133.246094 263.25 132.796875 C 263.703125 132.296875 263.953125 131.644531 263.953125 130.941406 L 265.953125 130.941406 C 265.953125 132.09375 265.453125 133.195312 264.652344 134 C 263.851562 134.800781 262.75 135.25 261.601562 135.199219 C 260 135.199219 258.800781 134.699219 257.949219 133.699219 C 257.097656 132.695312 256.699219 131.191406 256.699219 129.1875 L 256.699219 127.785156 C 256.699219 125.832031 257.097656 124.332031 257.949219 123.328125 C 258.800781 122.328125 260 121.824219 261.601562 121.824219 C 262.800781 121.777344 263.902344 122.226562 264.753906 123.078125 C 265.550781 124.03125 266.003906 125.230469 266.003906 126.484375 L 264 126.484375 C 264 125.734375 263.75 124.980469 263.300781 124.332031 C 262.851562 123.828125 262.25 123.578125 261.601562 123.628906 C 260.800781 123.578125 260 123.929688 259.5 124.582031 C 259.050781 125.183594 258.800781 126.183594 258.800781 127.585938 L 258.800781 129.238281 C 258.800781 130.742188 259 131.84375 259.449219 132.445312 C 259.898438 133.195312 260.699219 133.546875 261.550781 133.445312 Z M 270.40625 123.429688 C 271.105469 122.425781 272.253906 121.875 273.457031 121.875 C 275.707031 121.875 276.90625 123.378906 276.90625 126.433594 L 276.90625 135 L 274.804688 135 L 274.804688 126.585938 C 274.855469 125.832031 274.707031 125.082031 274.304688 124.429688 C 273.957031 123.980469 273.355469 123.777344 272.804688 123.777344 C 272.304688 123.777344 271.804688 123.929688 271.40625 124.28125 C 270.953125 124.679688 270.65625 125.132812 270.40625 125.632812 L 270.40625 135 L 268.304688 135 L 268.304688 116.714844 L 270.40625 116.714844 Z M 282.859375 119.019531 L 282.859375 122.125 L 284.8125 122.125 L 284.8125 123.828125 L 282.859375 123.828125 L 282.859375 131.84375 C 282.808594 132.246094 282.910156 132.644531 283.109375 132.996094 C 283.308594 133.296875 283.609375 133.398438 283.960938 133.398438 C 284.261719 133.398438 284.511719 133.347656 284.8125 133.246094 L 284.8125 135.050781 C 284.359375 135.199219 283.859375 135.300781 283.359375 135.300781 C 282.609375 135.351562 281.910156 135 281.460938 134.398438 C 280.960938 133.648438 280.757812 132.796875 280.808594 131.894531 L 280.808594 123.878906 L 278.859375 123.878906 L 278.859375 122.125 L 280.808594 122.125 L 280.808594 119.019531 Z M 291.863281 135.300781 C 290.261719 135.300781 289.011719 134.800781 288.164062 133.847656 C 287.3125 132.894531 286.863281 131.492188 286.863281 129.640625 L 286.863281 128.085938 C 286.863281 126.183594 287.261719 124.679688 288.113281 123.578125 C 288.960938 122.476562 290.261719 121.875 291.613281 121.925781 C 293.113281 121.925781 294.265625 122.425781 295.015625 123.378906 C 295.765625 124.332031 296.167969 125.832031 296.167969 127.886719 L 296.167969 129.289062 L 288.960938 129.289062 L 288.960938 129.589844 C 288.960938 130.992188 289.214844 131.996094 289.761719 132.59375 C 290.3125 133.246094 291.164062 133.597656 292.015625 133.546875 C 292.5625 133.546875 293.164062 133.445312 293.664062 133.195312 C 294.164062 132.945312 294.617188 132.546875 295.015625 132.09375 L 296.117188 133.445312 C 295.117188 134.648438 293.714844 135.300781 291.863281 135.300781 Z M 291.613281 123.730469 C 290.863281 123.679688 290.113281 124.03125 289.664062 124.628906 C 289.164062 125.480469 288.914062 126.433594 288.960938 127.4375 L 294.015625 127.4375 L 294.015625 127.136719 C 293.964844 125.882812 293.765625 125.03125 293.363281 124.53125 C 292.914062 123.980469 292.265625 123.679688 291.613281 123.730469 Z M 50.507812 154.4375 C 50.507812 152.433594 50.855469 150.929688 51.605469 149.878906 C 52.355469 148.824219 53.558594 148.273438 54.808594 148.324219 C 55.957031 148.273438 57.058594 148.875 57.710938 149.828125 L 57.710938 143.164062 L 59.761719 143.164062 L 59.761719 161.449219 L 57.808594 161.449219 L 57.710938 160.046875 C 57.109375 161.097656 55.957031 161.699219 54.757812 161.648438 C 53.507812 161.699219 52.355469 161.097656 51.605469 160.097656 C 50.855469 159.042969 50.457031 157.59375 50.457031 155.6875 Z M 52.605469 155.636719 C 52.605469 157.089844 52.808594 158.144531 53.257812 158.84375 C 53.707031 159.546875 54.507812 159.894531 55.359375 159.847656 C 56.410156 159.847656 57.308594 159.246094 57.710938 158.242188 L 57.710938 151.730469 C 57.308594 150.777344 56.410156 150.179688 55.359375 150.179688 C 54.507812 150.128906 53.707031 150.480469 53.257812 151.179688 C 52.808594 151.832031 52.605469 152.882812 52.605469 154.285156 Z M 67.613281 161.699219 C 66.011719 161.699219 64.761719 161.199219 63.914062 160.246094 C 63.0625 159.296875 62.613281 157.890625 62.613281 156.039062 L 62.613281 154.484375 C 62.613281 152.582031 63.011719 151.078125 63.863281 149.976562 C 64.710938 148.875 66.011719 148.273438 67.363281 148.324219 C 68.863281 148.324219 70.015625 148.824219 70.765625 149.777344 C 71.515625 150.730469 71.914062 152.230469 71.914062 154.285156 L 71.914062 155.636719 L 64.710938 155.636719 L 64.710938 155.9375 C 64.710938 157.339844 64.960938 158.34375 65.511719 158.945312 C 66.0625 159.59375 66.914062 159.945312 67.765625 159.894531 C 68.3125 159.894531 68.863281 159.796875 69.414062 159.546875 C 69.914062 159.296875 70.363281 158.894531 70.714844 158.445312 L 71.816406 159.796875 C 70.867188 161.046875 69.464844 161.699219 67.613281 161.699219 Z M 67.363281 150.179688 C 66.613281 150.128906 65.863281 150.480469 65.414062 151.078125 C 64.914062 151.929688 64.664062 152.882812 64.710938 153.886719 L 69.765625 153.886719 L 69.765625 153.585938 C 69.714844 152.382812 69.464844 151.480469 69.113281 150.980469 C 68.664062 150.429688 68.015625 150.128906 67.363281 150.179688 Z M 79.71875 150.578125 C 79.417969 150.527344 79.070312 150.480469 78.769531 150.480469 C 77.667969 150.480469 76.917969 151.078125 76.519531 152.230469 L 76.519531 161.449219 L 74.417969 161.449219 L 74.417969 148.523438 L 76.46875 148.523438 L 76.519531 149.828125 C 76.917969 148.875 77.867188 148.273438 78.917969 148.273438 C 79.21875 148.273438 79.46875 148.324219 79.769531 148.425781 Z M 86.972656 154.484375 C 86.972656 152.480469 87.324219 150.980469 88.074219 149.925781 C 88.824219 148.875 90.023438 148.324219 91.273438 148.375 C 92.425781 148.324219 93.527344 148.925781 94.175781 149.878906 L 94.175781 143.164062 L 96.328125 143.164062 L 96.328125 161.449219 L 94.375 161.449219 L 94.277344 160.046875 C 93.675781 161.097656 92.523438 161.699219 91.324219 161.648438 C 90.074219 161.699219 88.921875 161.097656 88.171875 160.097656 C 87.421875 159.042969 87.023438 157.59375 87.023438 155.6875 Z M 89.074219 155.6875 C 89.074219 157.140625 89.273438 158.191406 89.722656 158.894531 C 90.175781 159.59375 90.972656 159.945312 91.824219 159.894531 C 92.875 159.894531 93.777344 159.296875 94.175781 158.292969 L 94.175781 151.78125 C 93.777344 150.828125 92.875 150.226562 91.824219 150.226562 C 90.972656 150.179688 90.175781 150.527344 89.722656 151.230469 C 89.273438 151.929688 89.074219 152.933594 89.074219 154.335938 Z M 104.082031 161.75 C 102.480469 161.75 101.230469 161.25 100.378906 160.296875 C 99.527344 159.34375 99.078125 157.941406 99.078125 156.089844 L 99.078125 154.535156 C 99.078125 152.632812 99.476562 151.128906 100.328125 150.027344 C 101.179688 148.925781 102.480469 148.324219 103.828125 148.375 C 105.332031 148.375 106.480469 148.875 107.230469 149.828125 C 107.980469 150.777344 108.332031 152.28125 108.382812 154.335938 L 108.382812 155.738281 L 101.179688 155.738281 L 101.179688 156.039062 C 101.179688 157.441406 101.429688 158.445312 101.980469 159.042969 C 102.53125 159.695312 103.378906 160.046875 104.230469 159.996094 C 104.78125 159.996094 105.332031 159.894531 105.882812 159.644531 C 106.382812 159.394531 106.832031 158.996094 107.179688 158.542969 L 108.28125 159.894531 C 107.332031 161.148438 105.980469 161.800781 104.082031 161.75 Z M 103.828125 150.179688 C 103.078125 150.128906 102.328125 150.480469 101.878906 151.078125 C 101.378906 151.929688 101.128906 152.882812 101.179688 153.886719 L 106.28125 153.886719 L 106.28125 153.585938 C 106.230469 152.382812 105.980469 151.480469 105.628906 150.980469 C 105.179688 150.429688 104.53125 150.128906 103.828125 150.179688 Z M 117.484375 160.347656 C 116.734375 161.296875 115.585938 161.800781 114.433594 161.699219 C 113.433594 161.75 112.433594 161.296875 111.785156 160.496094 C 111.183594 159.695312 110.882812 158.492188 110.882812 156.992188 L 110.882812 148.574219 L 112.984375 148.574219 L 112.984375 156.839844 C 112.984375 158.84375 113.585938 159.847656 114.785156 159.847656 C 115.933594 159.945312 117.035156 159.246094 117.4375 158.144531 L 117.4375 148.625 L 119.535156 148.625 L 119.535156 161.5 L 117.535156 161.5 Z M 125.441406 145.46875 L 125.441406 148.574219 L 127.390625 148.574219 L 127.390625 150.277344 L 125.441406 150.277344 L 125.441406 158.292969 C 125.390625 158.695312 125.488281 159.09375 125.691406 159.445312 C 125.890625 159.746094 126.191406 159.847656 126.539062 159.847656 C 126.839844 159.847656 127.089844 159.796875 127.390625 159.695312 L 127.390625 161.5 C 126.941406 161.648438 126.441406 161.75 125.941406 161.75 C 125.191406 161.800781 124.488281 161.449219 124.039062 160.847656 C 123.589844 160.097656 123.339844 159.246094 123.390625 158.34375 L 123.390625 150.328125 L 121.4375 150.328125 L 121.4375 148.625 L 123.390625 148.625 L 123.390625 145.519531 Z M 136.144531 158.191406 C 136.144531 157.742188 135.996094 157.339844 135.644531 157.039062 C 135.042969 156.539062 134.394531 156.1875 133.644531 155.890625 C 132.792969 155.589844 131.992188 155.1875 131.242188 154.6875 C 130.792969 154.386719 130.441406 153.984375 130.191406 153.535156 C 129.941406 153.082031 129.839844 152.53125 129.839844 152.03125 C 129.839844 151.03125 130.242188 150.078125 130.992188 149.425781 C 132.742188 148.023438 135.242188 148.023438 136.945312 149.476562 C 137.695312 150.226562 138.09375 151.230469 138.09375 152.28125 L 135.996094 152.28125 C 135.996094 151.730469 135.792969 151.179688 135.394531 150.777344 C 134.992188 150.378906 134.445312 150.128906 133.894531 150.179688 C 133.34375 150.179688 132.84375 150.328125 132.441406 150.679688 C 132.09375 151.03125 131.890625 151.480469 131.941406 151.980469 C 131.941406 152.382812 132.042969 152.734375 132.34375 153.035156 C 132.894531 153.484375 133.542969 153.835938 134.195312 154.085938 C 135.746094 154.6875 136.792969 155.289062 137.394531 155.890625 C 137.945312 156.488281 138.246094 157.292969 138.246094 158.09375 C 138.296875 159.09375 137.84375 160.097656 137.09375 160.796875 C 136.246094 161.5 135.144531 161.851562 133.992188 161.800781 C 132.792969 161.851562 131.640625 161.449219 130.742188 160.648438 C 129.941406 159.894531 129.441406 158.84375 129.492188 157.691406 L 131.59375 157.691406 C 131.542969 158.894531 132.441406 159.894531 133.644531 159.996094 L 133.992188 159.996094 C 134.542969 160.046875 135.144531 159.847656 135.59375 159.546875 C 135.945312 159.144531 136.144531 158.695312 136.144531 158.191406 Z M 145.449219 159.945312 C 146.050781 159.996094 146.699219 159.746094 147.148438 159.296875 C 147.597656 158.792969 147.851562 158.144531 147.851562 157.441406 L 149.851562 157.441406 C 149.851562 158.59375 149.351562 159.695312 148.550781 160.546875 C 147.75 161.347656 146.648438 161.800781 145.5 161.75 C 143.898438 161.75 142.699219 161.25 141.847656 160.246094 C 140.996094 159.246094 140.597656 157.742188 140.597656 155.738281 L 140.597656 154.335938 C 140.597656 152.382812 140.996094 150.929688 141.847656 149.878906 C 142.699219 148.875 143.898438 148.375 145.5 148.375 C 146.648438 148.324219 147.800781 148.777344 148.648438 149.628906 C 149.449219 150.578125 149.902344 151.78125 149.902344 153.035156 L 147.898438 153.035156 C 147.898438 152.28125 147.648438 151.53125 147.199219 150.878906 C 146.75 150.378906 146.148438 150.128906 145.5 150.179688 C 144.699219 150.128906 143.898438 150.480469 143.398438 151.078125 C 142.949219 151.679688 142.699219 152.683594 142.699219 154.085938 L 142.699219 155.738281 C 142.699219 157.242188 142.898438 158.34375 143.347656 158.945312 C 143.796875 159.644531 144.597656 159.996094 145.449219 159.945312 Z M 154.300781 149.925781 C 155.003906 148.925781 156.152344 148.375 157.355469 148.375 C 159.605469 148.375 160.804688 149.878906 160.804688 152.933594 L 160.804688 161.5 L 158.703125 161.5 L 158.703125 153.035156 C 158.753906 152.28125 158.605469 151.53125 158.203125 150.878906 C 157.855469 150.429688 157.253906 150.226562 156.703125 150.226562 C 156.203125 150.226562 155.703125 150.429688 155.304688 150.730469 C 154.851562 151.078125 154.550781 151.582031 154.300781 152.082031 L 154.300781 161.449219 L 152.203125 161.449219 L 152.203125 143.164062 L 154.253906 143.164062 Z M 168.558594 161.699219 C 167.160156 161.800781 165.859375 161.25 164.855469 160.246094 C 164.007812 159.296875 163.558594 157.890625 163.558594 156.039062 L 163.558594 154.484375 C 163.558594 152.582031 163.957031 151.078125 164.808594 149.976562 C 165.65625 148.875 166.957031 148.273438 168.308594 148.324219 C 169.808594 148.324219 170.960938 148.824219 171.710938 149.777344 C 172.460938 150.730469 172.8125 152.230469 172.859375 154.285156 L 172.859375 155.6875 L 165.65625 155.6875 L 165.65625 155.988281 C 165.65625 157.390625 165.90625 158.394531 166.457031 158.996094 C 167.007812 159.644531 167.859375 159.996094 168.710938 159.945312 C 169.257812 159.945312 169.808594 159.847656 170.359375 159.59375 C 170.859375 159.34375 171.308594 158.945312 171.660156 158.492188 L 172.761719 159.847656 C 171.859375 161.046875 170.460938 161.699219 168.558594 161.699219 Z M 168.359375 150.179688 C 167.609375 150.128906 166.859375 150.480469 166.40625 151.078125 C 165.90625 151.929688 165.65625 152.882812 165.707031 153.886719 L 170.761719 153.886719 L 170.761719 153.585938 C 170.710938 152.382812 170.511719 151.480469 170.109375 150.980469 C 169.660156 150.429688 169.007812 150.128906 168.359375 150.179688 Z M 177.363281 148.625 L 177.414062 150.027344 C 178.113281 148.976562 179.3125 148.375 180.5625 148.375 C 182.816406 148.375 184.015625 149.878906 184.015625 152.933594 L 184.015625 161.5 L 181.914062 161.5 L 181.914062 152.984375 C 181.964844 152.230469 181.816406 151.480469 181.414062 150.828125 C 181.066406 150.378906 180.464844 150.179688 179.914062 150.179688 C 179.414062 150.179688 178.914062 150.378906 178.511719 150.679688 C 178.0625 151.03125 177.714844 151.53125 177.511719 152.03125 L 177.511719 161.398438 L 175.410156 161.398438 L 175.410156 148.523438 Z M 199.023438 144.167969 L 201.222656 144.167969 L 201.222656 156.441406 C 201.222656 158.09375 200.824219 159.394531 199.972656 160.347656 C 199.121094 161.296875 197.871094 161.800781 196.570312 161.75 C 195.269531 161.800781 194.019531 161.347656 193.121094 160.398438 C 192.269531 159.34375 191.820312 158.042969 191.871094 156.691406 L 194.070312 156.691406 C 194.019531 157.492188 194.269531 158.34375 194.71875 158.996094 C 195.171875 159.546875 195.820312 159.847656 196.519531 159.847656 C 197.222656 159.847656 197.921875 159.546875 198.324219 158.945312 C 198.824219 158.191406 199.074219 157.292969 199.023438 156.390625 Z M 211.078125 160.347656 C 210.328125 161.296875 209.226562 161.800781 208.027344 161.699219 C 206.976562 161.75 206.027344 161.296875 205.375 160.496094 C 204.773438 159.695312 204.476562 158.492188 204.476562 156.992188 L 204.476562 148.574219 L 206.574219 148.574219 L 206.574219 156.839844 C 206.574219 158.84375 207.175781 159.847656 208.375 159.847656 C 209.527344 159.945312 210.628906 159.246094 211.027344 158.144531 L 211.027344 148.625 L 213.128906 148.625 L 213.128906 161.5 L 211.128906 161.5 Z M 215.832031 154.484375 C 215.832031 152.480469 216.179688 150.980469 216.929688 149.925781 C 217.679688 148.875 218.882812 148.324219 220.132812 148.375 C 221.28125 148.324219 222.382812 148.925781 223.035156 149.878906 L 223.035156 143.164062 L 225.132812 143.164062 L 225.132812 161.449219 L 223.183594 161.449219 L 223.082031 160.046875 C 222.484375 161.097656 221.332031 161.699219 220.132812 161.648438 C 218.882812 161.699219 217.730469 161.097656 216.980469 160.097656 C 216.230469 159.042969 215.832031 157.59375 215.832031 155.6875 Z M 217.929688 155.6875 C 217.929688 157.140625 218.132812 158.191406 218.582031 158.894531 C 219.03125 159.59375 219.832031 159.945312 220.683594 159.894531 C 221.734375 159.894531 222.632812 159.296875 223.035156 158.292969 L 223.035156 151.78125 C 222.632812 150.828125 221.734375 150.226562 220.683594 150.226562 C 219.832031 150.179688 219.03125 150.527344 218.582031 151.230469 C 218.132812 151.882812 217.929688 152.933594 217.929688 154.335938 Z M 232.9375 161.75 C 231.335938 161.75 230.085938 161.25 229.234375 160.296875 C 228.386719 159.34375 227.933594 157.941406 227.933594 156.089844 L 227.933594 154.535156 C 227.933594 152.632812 228.335938 151.128906 229.1875 150.027344 C 230.035156 148.925781 231.335938 148.324219 232.6875 148.375 C 234.1875 148.375 235.339844 148.875 236.089844 149.828125 C 236.839844 150.777344 237.238281 152.28125 237.238281 154.335938 L 237.238281 155.738281 L 230.085938 155.738281 L 230.085938 156.039062 C 230.085938 157.441406 230.335938 158.445312 230.835938 159.042969 C 231.386719 159.695312 232.238281 160.046875 233.085938 159.996094 C 233.636719 159.996094 234.1875 159.894531 234.738281 159.644531 C 235.238281 159.394531 235.6875 158.996094 236.089844 158.542969 L 237.191406 159.894531 C 236.238281 161.097656 234.839844 161.699219 232.9375 161.75 Z M 232.738281 150.179688 C 231.988281 150.128906 231.238281 150.480469 230.785156 151.078125 C 230.285156 151.929688 230.035156 152.882812 230.085938 153.886719 L 235.140625 153.886719 L 235.140625 153.585938 C 235.089844 152.382812 234.886719 151.480469 234.488281 150.980469 C 234.089844 150.429688 233.4375 150.128906 232.738281 150.179688 Z M 241.792969 148.625 L 241.839844 150.027344 C 242.542969 148.976562 243.742188 148.375 244.941406 148.375 C 247.195312 148.375 248.394531 149.878906 248.394531 152.933594 L 248.394531 161.5 L 246.292969 161.5 L 246.292969 153.035156 C 246.34375 152.28125 246.195312 151.53125 245.792969 150.878906 C 245.441406 150.429688 244.84375 150.226562 244.292969 150.226562 C 243.792969 150.226562 243.292969 150.429688 242.890625 150.730469 C 242.441406 151.078125 242.140625 151.582031 241.890625 152.082031 L 241.890625 161.449219 L 239.742188 161.449219 L 239.742188 148.523438 Z M 241.792969 148.625 "/>
<path style=" stroke:none;fill-rule:nonzero;fill:rgb(0%,9.803922%,46.27451%);fill-opacity:1;" d="M 27.046875 0.402344 L 35.148438 0.402344 L 35.148438 108.601562 L 27.046875 108.601562 Z M 27.046875 0.402344 "/>
<path style=" stroke:none;fill-rule:nonzero;fill:rgb(0%,9.803922%,46.27451%);fill-opacity:1;" d="M 13.839844 0.402344 L 21.945312 0.402344 L 21.945312 108.601562 L 13.839844 108.601562 Z M 13.839844 0.402344 "/>
<path style=" stroke:none;fill-rule:nonzero;fill:rgb(0%,9.803922%,46.27451%);fill-opacity:1;" d="M 0.632812 0.402344 L 8.738281 0.402344 L 8.738281 108.601562 L 0.632812 108.601562 Z M 0.632812 0.402344 "/>
</g>
</svg>
