<?xml version="1.0" encoding="utf-8"?>
<!-- Generator: Adobe Illustrator 26.2.0, SVG Export Plug-In . SVG Version: 6.00 Build 0)  -->
<svg version="1.1" id="Ebene_1" xmlns="http://www.w3.org/2000/svg" xmlns:xlink="http://www.w3.org/1999/xlink" x="0px" y="0px"
	 viewBox="0 0 593 323.4" style="enable-background:new 0 0 593 323.4;" xml:space="preserve">
<style type="text/css">
	.st0{fill:#001976;}
</style>
<path id="Pfad_489" class="st0" d="M108.4,216.8h-7v-34.6h7V216.8z M137.8,212.9c-1.4,1.5-3.1,2.6-5,3.3c-2.1,0.8-4.2,1.1-6.4,1.1
	c-4,0-7.1-1.2-9.3-3.7c-2.2-2.5-3.3-6.1-3.4-10.8v-6.2c0-4.8,1-8.4,3.1-11s5.1-3.9,9.1-3.9c3.8,0,6.6,0.9,8.5,2.8s3,4.8,3.3,8.7
	h-6.8c-0.2-2.2-0.6-3.7-1.4-4.5c-0.9-0.9-2.2-1.3-3.4-1.2c-1.6-0.1-3.2,0.7-4.1,2.1c-0.9,1.4-1.3,3.6-1.3,6.6v6.3
	c0,3.2,0.5,5.4,1.4,6.9c1.1,1.5,2.8,2.3,4.6,2.1c1.2,0.1,2.3-0.2,3.4-0.8l0.6-0.4v-6.4h-4.9v-5.3h11.9L137.8,212.9z M141.5,203.2
	c0-4.2,0.7-7.4,2.1-9.4c1.4-2.1,3.8-3.2,6.2-3.1c2,0,3.8,1,4.9,2.6v-12.9h6.8v36.4h-6.1l-0.3-2.6c-1.1,1.9-3.1,3.1-5.3,3.1
	c-2.5,0.1-4.8-1-6.2-3.1s-2.1-5.1-2.2-9.1v-1.9H141.5z M148.3,204.8c-0.1,1.8,0.2,3.6,0.8,5.3c0.5,1,1.6,1.6,2.7,1.5
	c1.3,0,2.4-0.7,3-1.8v-11.7c-0.5-1.2-1.7-1.9-3-1.9c-1.1-0.1-2.2,0.5-2.7,1.5c-0.6,1-0.9,2.8-0.9,5.3L148.3,204.8z M178.3,182.2h7
	v24c0.1,3-0.9,5.9-2.8,8.1c-1.9,2-4.5,3.1-7.2,3c-2.8,0.2-5.5-0.9-7.4-2.8c-1.8-1.9-2.6-4.5-2.6-7.9h7c0,3.3,1,4.9,3,4.9
	s3-1.9,3-5.7V182.2z M106.6,269.6h-4.4V235h4.4V269.6z M117.6,243.9l0.1,2.8c1.4-2.1,3.8-3.3,6.2-3.3c4.5,0,6.9,3,6.9,9.1v17.1h-4.2
	v-16.9c0.1-1.5-0.2-3-1-4.3c-0.7-0.9-1.9-1.3-3-1.3c-1,0-2,0.3-2.8,1c-0.9,0.8-1.5,1.7-2,2.7v18.7h-4.2v-25.7L117.6,243.9z
	 M149.7,263c0-0.9-0.3-1.7-1-2.3c-1.2-1-2.5-1.7-3.9-2.3c-1.7-0.6-3.3-1.4-4.8-2.4c-0.9-0.6-1.6-1.4-2.1-2.3c-0.5-0.9-0.7-2-0.7-3
	c0-2,0.8-3.9,2.3-5.2c3.5-2.8,8.5-2.8,11.9,0.1c1.5,1.5,2.4,3.5,2.3,5.6h-4.2c0-1.1-0.4-2.2-1.2-3s-1.9-1.3-3-1.2
	c-1.1,0-2.1,0.3-2.9,1c-0.7,0.7-1.1,1.6-1.1,2.6c0,0.8,0.3,1.5,0.8,2.1c1.1,0.9,2.4,1.6,3.7,2.1c3.1,1.2,5.2,2.4,6.4,3.6
	c1.1,1.2,1.7,2.8,1.7,4.4c0.1,2-0.8,4-2.3,5.4c-1.7,1.4-3.9,2.1-6.2,2c-2.4,0.1-4.7-0.7-6.5-2.3c-1.6-1.5-2.6-3.6-2.5-5.9h4.2
	c-0.1,2.4,1.7,4.4,4.1,4.6l0,0c0.2,0,0.5,0,0.7,0c1.1,0.1,2.3-0.3,3.2-0.9C149.3,265,149.7,264,149.7,263L149.7,263z M164.9,237.6
	v6.2h3.9v3.4h-3.9v16c0,0.8,0.1,1.6,0.5,2.3c0.4,0.6,1,0.9,1.7,0.8c0.6,0,1.1-0.1,1.7-0.3v3.6c-0.9,0.3-1.9,0.5-2.9,0.5
	c-1.5,0.1-2.9-0.6-3.8-1.8c-1-1.5-1.4-3.2-1.3-5v-16h-3.9v-3.4h3.9v-6.2L164.9,237.6z M178.3,269.6h-4.2v-25.8h4.2V269.6z
	 M178.6,237.1c0,0.6-0.2,1.3-0.6,1.8c-1,0.9-2.6,0.9-3.6,0c-0.4-0.5-0.6-1.1-0.6-1.8s0.2-1.3,0.6-1.8c1-1,2.6-1,3.6,0l0,0
	C178.4,235.8,178.6,236.4,178.6,237.1L178.6,237.1z M190.4,237.7v6.2h3.9v3.4h-3.9v16c-0.1,0.8,0.1,1.6,0.5,2.3
	c0.4,0.5,1,0.8,1.7,0.8c0.6,0,1.1-0.1,1.7-0.3v3.6c-0.9,0.3-1.9,0.5-2.9,0.5c-1.5,0.1-2.9-0.6-3.8-1.8c-1-1.5-1.4-3.2-1.3-5v-16h-4
	V244h3.9v-6.2L190.4,237.7z M212.4,267.4c-1.5,1.9-3.8,2.9-6.1,2.7c-2.1,0.1-4-0.8-5.3-2.4c-1.2-1.6-1.8-4-1.8-7v-16.8h4.2v16.5
	c0,4,1.2,6,3.6,6c2.3,0.1,4.5-1.2,5.3-3.4v-19h4.2v25.7h-4L212.4,267.4z M228.3,237.7v6.2h3.9v3.4h-3.9v16c-0.1,0.8,0.1,1.6,0.5,2.3
	c0.4,0.6,1,0.9,1.7,0.8c0.6,0,1.1-0.1,1.7-0.3v3.6c-0.9,0.3-1.9,0.5-2.9,0.5c-1.5,0.1-2.9-0.6-3.8-1.8c-1-1.5-1.4-3.2-1.3-5v-16
	h-3.9V244h3.9v-6.2L228.3,237.7z M250.2,269.7v-22.4h-3.4v-3.4h3.4v-3c-0.1-2.2,0.6-4.4,2-6.1c1.4-1.5,3.4-2.3,5.4-2.2
	c0.9,0,1.7,0.1,2.5,0.4l-0.2,3.6c-0.6-0.1-1.3-0.2-1.9-0.2c-2.4,0-3.6,1.7-3.6,5.1v2.4h4.4v3.4h-4.4v22.4H250.2z M276.9,267.4
	c-1.5,1.9-3.7,2.9-6.1,2.7c-2.1,0.1-4-0.8-5.3-2.4c-1.2-1.6-1.8-4-1.8-7v-16.9h4.2v16.5c0,4,1.2,6,3.6,6c2.3,0.1,4.5-1.2,5.3-3.4
	v-19h4.2v25.7h-4L276.9,267.4z M264.7,237c0-0.7,0.2-1.3,0.7-1.8s1.2-0.8,1.9-0.7c0.7-0.1,1.4,0.2,2,0.7c0.4,0.5,0.7,1.1,0.7,1.8
	c-0.1,1.5-1.4,2.6-2.9,2.5c-0.6,0-1.2-0.3-1.6-0.7C264.9,238.3,264.7,237.7,264.7,237z M275,237c0-0.7,0.2-1.3,0.6-1.8
	c1.1-1,2.8-1,3.9,0c0.4,0.5,0.7,1.1,0.7,1.8s-0.2,1.3-0.7,1.8s-1.3,0.8-2,0.7c-0.7,0.1-1.4-0.2-1.9-0.7S274.9,237.7,275,237L275,237
	z M298,247.8c-0.6-0.1-1.3-0.2-1.9-0.2c-2.2,0-3.7,1.2-4.5,3.5v18.4h-4.2v-25.7h4.1l0.1,2.6c0.8-1.9,2.7-3.1,4.8-3.1
	c0.6,0,1.1,0.1,1.7,0.3L298,247.8z M312.4,255.6c0-4,0.7-7,2.2-9.1s3.9-3.2,6.4-3.1c2.3-0.1,4.5,1.1,5.8,3v-13.3h4.2v36.5h-3.9
	l-0.2-2.8c-1.2,2.1-3.5,3.3-5.9,3.2c-2.5,0.1-4.8-1.1-6.3-3.1c-1.5-2.1-2.3-5-2.3-8.8L312.4,255.6z M316.6,258c0,2.9,0.4,5,1.3,6.4
	s2.5,2.1,4.2,2c2.1,0,3.9-1.2,4.7-3.2v-13c-0.8-1.9-2.6-3.1-4.7-3.1c-1.7-0.1-3.3,0.6-4.2,2c-0.9,1.3-1.3,3.4-1.3,6.2V258z
	 M342,269.6h-4.2v-25.7h4.2V269.6z M342.3,237c0,0.6-0.2,1.3-0.6,1.8c-0.5,0.5-1.1,0.8-1.8,0.7c-0.7,0.1-1.4-0.2-1.8-0.7
	s-0.6-1.1-0.6-1.8s0.2-1.3,0.6-1.8c1-1,2.6-1,3.6,0l0,0C342.1,235.7,342.3,236.4,342.3,237L342.3,237z M357.8,270
	c-3.2,0-5.7-1-7.4-2.9c-1.7-1.9-2.6-4.7-2.6-8.4v-3.1c0-3.8,0.8-6.8,2.5-9s4.3-3.4,7-3.3c3,0,5.3,1,6.8,2.9s2.2,4.9,2.3,9v2.8H352
	v0.6c0,2.8,0.5,4.8,1.6,6c1.1,1.3,2.8,2,4.5,1.9c1.1,0,2.3-0.2,3.3-0.7s1.9-1.3,2.6-2.2l2.2,2.7C364.3,268.8,361.5,270.1,357.8,270
	L357.8,270z M357.4,247c-1.5-0.1-3,0.6-3.9,1.8c-1,1.7-1.5,3.6-1.4,5.6h10.1v-0.6c-0.1-2.4-0.5-4.2-1.3-5.2
	C360,247.5,358.6,246.9,357.4,247L357.4,247z M404.8,265.3l-0.8,1c-2.2,2.5-5.4,3.8-9.6,3.8c-3.4,0.2-6.6-1.2-8.8-3.7
	c-2.1-2.5-3.2-6-3.3-10.5v-6.8c0-4.8,1-8.5,2.9-10.9s4.9-3.6,8.7-3.6c2.8-0.2,5.6,0.8,7.7,2.8c1.9,1.8,2.9,4.5,3.1,7.9h-4.4
	c-0.1-1.8-0.7-3.6-1.8-5c-1.2-1.3-2.9-2-4.6-1.8c-2.1-0.2-4.2,0.8-5.5,2.4c-1.1,1.6-1.7,4.2-1.8,7.8v7.1c0,3.5,0.7,6.2,2,8
	s3.5,2.9,5.7,2.8c1.9,0.1,3.9-0.5,5.4-1.7l0.6-0.6v-8h-6.4v-3.7h10.7L404.8,265.3z M420.6,270c-3.2,0-5.7-1-7.4-2.9
	c-1.7-1.9-2.6-4.7-2.6-8.4v-3.1c0-3.8,0.8-6.8,2.5-9s4.3-3.4,7-3.3c3,0,5.3,1,6.8,2.9s2.2,4.9,2.3,9v2.8h-14.4v0.6
	c0,2.8,0.5,4.8,1.6,6c1.1,1.3,2.8,2,4.5,1.9c1.1,0,2.3-0.2,3.3-0.7s1.9-1.3,2.6-2.2l2.2,2.7C427,268.8,424.3,270.1,420.6,270
	L420.6,270z M420.1,247c-1.5-0.1-3,0.6-3.9,1.8c-1,1.7-1.5,3.6-1.4,5.6h10.1v-0.6c-0.1-2.4-0.5-4.2-1.3-5.2
	C422.7,247.5,421.4,246.9,420.1,247L420.1,247z M446.7,263c0-0.9-0.3-1.7-1-2.3c-1.2-1-2.5-1.7-4-2.3c-1.7-0.6-3.3-1.4-4.8-2.4
	c-0.9-0.6-1.6-1.4-2.1-2.3c-0.5-0.9-0.7-2-0.7-3c0-2,0.8-3.9,2.3-5.2c3.5-2.8,8.5-2.8,11.9,0.1c1.5,1.5,2.3,3.5,2.3,5.6h-4.2
	c0-1.1-0.4-2.2-1.2-3c-0.8-0.8-1.9-1.3-3-1.2c-1.1,0-2.1,0.3-2.9,1c-0.7,0.7-1.1,1.6-1.1,2.6c0,0.8,0.2,1.5,0.8,2.1
	c1.1,0.9,2.4,1.6,3.7,2.1c3.1,1.2,5.2,2.4,6.4,3.6c1.1,1.2,1.7,2.8,1.7,4.4c0.1,2-0.8,4-2.3,5.4c-1.7,1.4-4,2.1-6.2,2
	c-2.4,0.1-4.7-0.7-6.5-2.3c-1.6-1.5-2.6-3.6-2.5-5.9h4.2c-0.1,2.4,1.7,4.4,4.1,4.6l0,0l0,0c0.2,0,0.4,0,0.7,0
	c1.1,0.1,2.3-0.3,3.2-0.9C446.3,264.9,446.7,264,446.7,263L446.7,263z M465.3,266.4c1.3,0.1,2.5-0.4,3.4-1.3c0.9-1,1.4-2.3,1.4-3.7
	h4c0,2.3-1,4.5-2.6,6.1s-3.8,2.5-6.1,2.4c-2.8,0.2-5.5-0.9-7.3-3c-1.7-2-2.5-5-2.5-9v-2.8c0-3.9,0.8-6.9,2.5-8.9s4.1-3,7.3-3
	c2.4-0.1,4.6,0.8,6.3,2.5c1.6,1.9,2.5,4.3,2.5,6.8h-4c0-1.5-0.5-3-1.4-4.3c-0.9-1-2.1-1.5-3.4-1.4c-1.6-0.1-3.2,0.6-4.2,1.9
	c-0.9,1.2-1.4,3.2-1.4,6v3.3c0,3,0.4,5.2,1.3,6.4C462.1,265.9,463.6,266.6,465.3,266.4L465.3,266.4z M483.1,246.4
	c1.4-1.9,3.7-3,6.1-3c4.5,0,6.9,3,6.9,9.1v17.1h-4.2v-17c0.1-1.5-0.2-3-1-4.3c-0.7-0.9-1.9-1.3-3-1.3c-1,0-2,0.3-2.8,1
	c-0.9,0.8-1.5,1.7-2,2.7v18.7h-4.2v-36.5h4.2V246.4z M506.9,269.5h-4.2v-25.7h4.2V269.5z M507.2,237c0,0.6-0.2,1.3-0.6,1.8
	c-0.5,0.5-1.1,0.8-1.8,0.7c-0.7,0.1-1.3-0.2-1.8-0.7c-0.4-0.5-0.6-1.1-0.6-1.8s0.2-1.3,0.6-1.8c1-1,2.6-1,3.6,0l0,0
	C507,235.7,507.3,236.3,507.2,237L507.2,237z M522.5,266.4c1.3,0.1,2.5-0.4,3.4-1.3c0.9-1,1.4-2.3,1.4-3.7h4c0,2.3-1,4.5-2.6,6.1
	s-3.8,2.5-6.1,2.4c-3.2,0-5.6-1-7.3-3s-2.5-5-2.5-9v-2.8c0-3.9,0.8-6.9,2.5-8.9s4.1-3,7.3-3c2.4-0.1,4.6,0.8,6.3,2.5
	c1.6,1.9,2.5,4.3,2.5,6.8h-4c0-1.5-0.5-3-1.4-4.3c-0.9-1-2.1-1.5-3.4-1.4c-1.6-0.1-3.2,0.6-4.2,1.9c-0.9,1.2-1.4,3.2-1.4,6v3.3
	c0,3,0.4,5.2,1.3,6.4C519.2,265.9,520.8,266.6,522.5,266.4L522.5,266.4z M540.2,246.4c1.4-2,3.7-3.1,6.1-3.1c4.5,0,6.9,3,6.9,9.1
	v17.1H549v-16.8c0.1-1.5-0.2-3-1-4.3c-0.7-0.9-1.9-1.3-3-1.3c-1,0-2,0.3-2.8,1c-0.9,0.8-1.5,1.7-2,2.7v18.7H536V233h4.2V246.4z
	 M565.1,237.6v6.2h3.9v3.4h-3.9v16c-0.1,0.8,0.1,1.6,0.5,2.3c0.4,0.6,1,0.8,1.7,0.8c0.6,0,1.1-0.1,1.7-0.3v3.6
	c-0.9,0.3-1.9,0.5-2.9,0.5c-1.5,0.1-2.9-0.6-3.8-1.8c-1-1.5-1.4-3.2-1.3-5v-16h-3.9v-3.5h3.9v-6.2H565.1z M583.1,270.1
	c-3.2,0-5.7-1-7.4-2.9s-2.6-4.7-2.6-8.4v-3.1c0-3.8,0.8-6.8,2.5-9s4.3-3.4,7-3.3c3,0,5.3,1,6.8,2.9s2.3,4.9,2.3,9v2.8h-14.4v0.6
	c0,2.8,0.5,4.8,1.6,6c1.1,1.3,2.8,2,4.5,1.9c1.1,0,2.3-0.2,3.3-0.7s1.9-1.3,2.7-2.2l2.2,2.7C589.6,268.8,586.8,270.1,583.1,270.1
	L583.1,270.1z M582.6,247c-1.5-0.1-3,0.6-3.9,1.8c-1,1.7-1.5,3.6-1.4,5.6h10.1v-0.6c-0.1-2.5-0.5-4.2-1.3-5.2
	C585.2,247.5,583.9,246.9,582.6,247L582.6,247z M100.6,308.3c0-4,0.7-7,2.2-9.1s3.9-3.2,6.4-3.1c2.3-0.1,4.5,1.1,5.8,3v-13.3h4.1
	v36.5h-3.9l-0.2-2.8c-1.2,2.1-3.5,3.3-5.9,3.2c-2.5,0.1-4.8-1.1-6.3-3.1c-1.5-2.1-2.3-5-2.3-8.8L100.6,308.3z M104.8,310.7
	c0,2.9,0.4,5,1.3,6.4s2.5,2.1,4.2,2c2.1,0,3.9-1.2,4.7-3.2v-13c-0.8-1.9-2.6-3.1-4.7-3.1c-1.7-0.1-3.3,0.6-4.2,2
	c-0.9,1.3-1.3,3.4-1.3,6.2V310.7z M134.8,322.8c-3.2,0-5.7-1-7.4-2.9c-1.7-1.9-2.6-4.7-2.6-8.4v-3.1c0-3.8,0.8-6.8,2.5-9
	c1.7-2.2,4.3-3.4,7-3.3c3,0,5.3,1,6.8,2.9s2.3,4.9,2.3,9v2.7H129v0.6c0,2.8,0.5,4.8,1.6,6c1.1,1.3,2.8,2,4.5,1.9
	c1.1,0,2.2-0.2,3.3-0.7c1-0.5,1.9-1.3,2.6-2.2l2.2,2.7C141.3,321.5,138.5,322.8,134.8,322.8L134.8,322.8z M134.3,299.8
	c-1.5-0.1-3,0.6-3.9,1.8c-1,1.7-1.5,3.6-1.4,5.6h10.1v-0.6c-0.1-2.4-0.6-4.2-1.3-5.2C136.9,300.3,135.6,299.7,134.3,299.8
	L134.3,299.8z M159,300.6c-0.6-0.1-1.3-0.2-1.9-0.2c-2.2,0-3.7,1.2-4.5,3.5v18.4h-4.2v-25.8h4.1l0.1,2.6c0.8-1.9,2.7-3.1,4.8-3.1
	c0.6,0,1.1,0.1,1.7,0.3L159,300.6z M173.5,308.4c0-4,0.7-7,2.2-9.1s3.9-3.2,6.4-3.1c2.3-0.1,4.5,1.1,5.8,3v-13.4h4.3v36.5h-3.9
	l-0.2-2.8c-1.2,2.1-3.5,3.3-5.9,3.2c-2.5,0.1-4.8-1.1-6.3-3.1c-1.5-2.1-2.3-5-2.3-8.8L173.5,308.4z M177.7,310.8
	c0,2.9,0.4,5,1.3,6.4c0.9,1.4,2.5,2.1,4.2,2c2.1,0,3.9-1.2,4.7-3.2v-13c-0.8-1.9-2.6-3.1-4.7-3.1c-1.7-0.1-3.3,0.6-4.2,2
	s-1.3,3.4-1.3,6.2V310.8z M207.7,322.9c-3.2,0-5.7-1-7.4-2.9s-2.6-4.7-2.6-8.4v-3.1c0-3.8,0.8-6.8,2.5-9s4.3-3.4,7-3.3
	c3,0,5.3,1,6.8,2.9s2.2,4.9,2.3,9v2.8h-14.4v0.6c0,2.8,0.5,4.8,1.6,6c1.1,1.3,2.8,2,4.5,1.9c1.1,0,2.2-0.2,3.3-0.7
	c1-0.5,1.9-1.3,2.6-2.2l2.2,2.7C214.2,321.7,211.5,323,207.7,322.9L207.7,322.9z M207.2,299.8c-1.5-0.1-3,0.6-3.9,1.8
	c-1,1.7-1.5,3.6-1.4,5.6h10.2v-0.6c-0.1-2.4-0.6-4.2-1.3-5.2C209.9,300.3,208.6,299.7,207.2,299.8L207.2,299.8z M234.5,320.1
	c-1.5,1.9-3.8,2.9-6.1,2.7c-2,0.1-4-0.8-5.3-2.4c-1.2-1.6-1.8-4-1.8-7v-16.8h4.2v16.5c0,4,1.2,6,3.6,6c2.3,0.2,4.5-1.2,5.3-3.4v-19
	h4.2v25.7h-4L234.5,320.1z M250.4,290.4v6.2h3.9v3.4h-3.9v16c-0.1,0.8,0.1,1.6,0.5,2.3c0.4,0.6,1,0.8,1.7,0.8c0.6,0,1.1-0.1,1.7-0.3
	v3.6c-0.9,0.3-1.9,0.5-2.9,0.5c-1.5,0.1-2.9-0.6-3.8-1.8c-0.9-1.5-1.4-3.2-1.3-5v-16h-3.9v-3.4h3.9v-6.2L250.4,290.4z M271.8,315.8
	c0-0.9-0.3-1.7-1-2.3c-1.2-1-2.5-1.7-4-2.3c-1.7-0.6-3.3-1.4-4.8-2.4c-0.9-0.6-1.6-1.4-2.1-2.3s-0.7-2-0.7-3c0-2,0.8-3.9,2.3-5.2
	c3.5-2.8,8.5-2.8,11.9,0.1c1.5,1.5,2.3,3.5,2.3,5.6h-4.2c0-1.1-0.4-2.2-1.2-3c-0.8-0.8-1.9-1.3-3-1.2c-1.1,0-2.1,0.3-2.9,1
	c-0.7,0.7-1.1,1.6-1,2.6c0,0.8,0.2,1.5,0.8,2.1c1.1,0.9,2.4,1.6,3.7,2.1c3.1,1.2,5.2,2.4,6.4,3.6c1.1,1.2,1.7,2.8,1.7,4.4
	c0.1,2-0.8,4-2.3,5.4c-1.7,1.4-3.9,2.1-6.2,2c-2.4,0.1-4.7-0.7-6.5-2.3c-1.6-1.5-2.6-3.6-2.5-5.9h4.2c-0.1,2.4,1.7,4.4,4.1,4.6l0,0
	h0.7c1.1,0.1,2.3-0.3,3.2-0.9C271.4,317.7,271.8,316.8,271.8,315.8L271.8,315.8z M290.4,319.3c1.2,0.1,2.5-0.4,3.4-1.3
	c0.9-1,1.4-2.3,1.4-3.7h4c0,2.3-1,4.5-2.6,6.2c-1.6,1.6-3.8,2.5-6.1,2.4c-3.2,0-5.6-1-7.3-3c-1.7-2-2.5-5-2.5-9v-2.8
	c0-3.9,0.8-6.8,2.5-8.9c1.7-2,4.1-3,7.3-3c2.3-0.1,4.6,0.8,6.3,2.5c1.6,1.9,2.5,4.3,2.5,6.8h-4c0-1.5-0.5-3-1.4-4.3
	c-0.9-1-2.1-1.5-3.4-1.4c-1.6-0.1-3.2,0.6-4.2,1.8c-0.9,1.2-1.4,3.2-1.4,6v3.3c0,3,0.4,5.2,1.3,6.4
	C287.1,318.7,288.7,319.4,290.4,319.3L290.4,319.3z M308.1,299.3c1.4-2,3.7-3.1,6.1-3.1c4.5,0,6.9,3,6.9,9.1v17.1h-4.2v-16.9
	c0.1-1.5-0.2-3-1-4.3c-0.7-0.9-1.9-1.3-3-1.3c-1,0-2,0.4-2.8,1c-0.9,0.7-1.5,1.7-2,2.7v18.7h-4.2v-36.5h4.1L308.1,299.3z
	 M336.6,322.8c-2.8,0.2-5.4-0.9-7.4-2.9c-1.7-1.9-2.6-4.7-2.6-8.4v-3.1c0-3.8,0.8-6.8,2.5-9s4.3-3.4,7-3.3c3,0,5.3,1,6.8,2.9
	s2.2,4.9,2.3,9v2.8h-14.4v0.6c0,2.8,0.5,4.8,1.6,6c1.1,1.3,2.8,2,4.5,1.9c1.1,0,2.2-0.2,3.3-0.7c1-0.5,1.9-1.3,2.6-2.2l2.2,2.7
	C343.2,321.5,340.4,322.8,336.6,322.8z M336.2,299.8c-1.5-0.1-3,0.6-3.9,1.8c-1,1.7-1.5,3.6-1.4,5.6H341v-0.6
	c-0.1-2.4-0.5-4.2-1.3-5.2C338.8,300.3,337.5,299.7,336.2,299.8L336.2,299.8z M354.2,296.7l0.1,2.8c1.4-2.1,3.8-3.3,6.3-3.3
	c4.5,0,6.9,3,6.9,9.1v17.1h-4.2v-17c0.1-1.5-0.2-3-1-4.3c-0.7-0.9-1.9-1.3-3-1.3c-1,0-2,0.4-2.8,1c-0.9,0.7-1.6,1.7-2,2.7v18.7h-4.2
	v-25.7L354.2,296.7z M397.5,287.8h4.4v24.5c0,3.3-0.8,5.9-2.5,7.8s-4.2,2.9-6.8,2.8c-2.6,0.1-5.1-0.8-6.9-2.7
	c-1.7-2.1-2.6-4.7-2.5-7.4h4.4c-0.1,1.6,0.4,3.3,1.3,4.6c0.9,1.1,2.2,1.7,3.6,1.7s2.8-0.6,3.6-1.8c1-1.5,1.5-3.3,1.4-5.1V287.8z
	 M421.6,320.1c-1.5,1.9-3.7,2.9-6.1,2.7c-2.1,0.1-4-0.8-5.3-2.4c-1.2-1.6-1.8-4-1.8-7v-16.8h4.2v16.5c0,4,1.2,6,3.6,6
	c2.3,0.2,4.5-1.2,5.3-3.4v-19h4.2v25.7h-4L421.6,320.1z M431.1,308.4c0-4,0.7-7,2.2-9.1s3.9-3.2,6.4-3.1c2.3-0.1,4.5,1.1,5.8,3
	v-13.4h4.2v36.5h-3.9l-0.2-2.8c-1.2,2.1-3.5,3.3-5.9,3.2c-2.5,0.1-4.8-1.1-6.3-3.1c-1.5-2.1-2.3-5-2.3-8.8L431.1,308.4z
	 M435.3,310.8c0,2.9,0.4,5,1.3,6.4s2.5,2.1,4.2,2c2.1,0,3.9-1.2,4.7-3.2v-13c-0.8-1.9-2.6-3.1-4.7-3.1c-1.7-0.1-3.3,0.6-4.2,2
	c-0.9,1.3-1.3,3.4-1.3,6.2V310.8z M465.3,322.9c-3.2,0-5.7-1-7.4-2.9c-1.7-1.9-2.6-4.7-2.6-8.4v-3.1c0-3.8,0.8-6.8,2.5-9
	s4.3-3.4,7-3.3c3,0,5.3,1,6.8,2.9s2.3,4.9,2.3,9v2.8h-14.3v0.6c0,2.8,0.5,4.8,1.5,6c1.1,1.3,2.8,2,4.5,1.9c1.1,0,2.2-0.2,3.3-0.7
	c1-0.5,1.9-1.3,2.7-2.2l2.2,2.7C471.9,321.6,469.1,322.8,465.3,322.9L465.3,322.9z M464.9,299.8c-1.5-0.1-3,0.6-3.9,1.8
	c-1,1.7-1.5,3.6-1.4,5.6h10.1v-0.6c-0.1-2.4-0.5-4.2-1.3-5.2C467.6,300.3,466.3,299.7,464.9,299.8L464.9,299.8z M483,296.7l0.1,2.8
	c1.4-2.1,3.8-3.3,6.2-3.3c4.5,0,6.9,3,6.9,9.1v17.1H492v-16.9c0.1-1.5-0.2-3-1-4.3c-0.7-0.9-1.9-1.3-3-1.3c-1,0-2,0.4-2.8,1
	c-0.9,0.7-1.5,1.7-2,2.7v18.7h-4.3v-25.8L483,296.7z"/>
<path id="Pfad_349" class="st0" d="M53.7,0.8h16.2v216H53.7V0.8z"/>
<path id="Pfad_490" class="st0" d="M27.3,0.8h16.2v216H27.3V0.8z"/>
<path id="Pfad_491" class="st0" d="M0.9,0.8h16.2v216H0.9V0.8z"/>
</svg>
